<svg version="1.1" id="Layer_1" xmlns="http://www.w3.org/2000/svg" xmlns:xlink="http://www.w3.org/1999/xlink" x="0px" y="0px"
	 width="100%" viewBox="0 0 312 112" enable-background="new 0 0 312 112" xml:space="preserve">
<path fill="#FFFFFF" opacity="1.000000" stroke="none" 
	d="
M215.000000,113.000000 
	C143.333359,113.000000 72.166710,113.000000 1.000048,113.000000 
	C1.000032,75.666702 1.000032,38.333397 1.000016,1.000073 
	C104.999939,1.000049 208.999878,1.000049 312.999878,1.000024 
	C312.999908,38.333260 312.999908,75.666519 312.999939,112.999893 
	C280.500000,113.000000 248.000000,113.000000 215.000000,113.000000 
M66.860970,32.317329 
	C61.595291,31.541346 56.318829,30.058462 51.066216,30.138607 
	C40.586796,30.298510 32.814770,36.097542 28.548752,45.172142 
	C23.189032,56.573242 24.829428,72.246765 37.470280,81.102203 
	C50.798443,90.439117 71.964363,86.996475 79.390320,70.949753 
	C85.619133,57.489933 82.351524,40.892410 66.860970,32.317329 
M226.000000,63.421844 
	C226.000000,58.973694 226.000000,54.525543 226.000000,50.077393 
	C225.354034,49.951385 224.708084,49.825378 224.062119,49.699375 
	C223.521713,51.726849 222.981308,53.754322 222.429611,55.824154 
	C218.091965,56.505268 217.290405,58.559448 217.964157,66.019470 
	C218.475800,71.684402 222.457306,69.651955 226.000000,70.022797 
	C226.000000,67.957375 226.000000,66.174057 226.000000,63.421844 
M101.002586,68.179848 
	C101.547089,68.779503 102.091591,69.379158 102.636093,69.978821 
	C103.087837,69.447235 103.887482,68.941521 103.929260,68.379456 
	C104.084785,66.287201 103.991325,64.176430 103.991325,62.098518 
	C111.226807,61.896755 112.464355,60.642689 111.999359,54.580185 
	C111.648865,50.010429 110.213356,49.441162 101.000168,50.418312 
	C101.000168,55.988041 101.000168,61.609280 101.002586,68.179848 
M141.047318,68.566750 
	C141.282379,65.178169 141.837997,61.770485 141.637573,58.407856 
	C141.508224,56.237690 135.994568,54.725948 135.519287,56.431755 
	C134.504608,60.073383 133.967361,64.161629 134.569031,67.849159 
	C135.136139,71.324715 138.461090,70.137146 141.047318,68.566750 
M165.990005,68.768166 
	C166.037277,67.972931 166.084564,67.177689 166.121399,66.558052 
	C167.415787,67.851448 168.713608,69.148262 170.011429,70.445076 
	C170.446472,70.056870 170.881516,69.668655 171.316574,69.280449 
	C169.950134,67.095879 168.583694,64.911308 167.454849,63.106567 
	C168.734100,60.912689 169.987381,58.763340 171.240677,56.613995 
	C170.801193,56.271454 170.361710,55.928913 169.922226,55.586372 
	C168.660889,56.877495 167.399551,58.168617 166.276291,59.318409 
	C164.716263,56.443375 168.082855,52.174641 163.001312,49.179272 
	C163.001312,56.113850 162.924896,62.068428 163.126282,68.013596 
	C163.145233,68.573013 164.913620,69.073174 165.990005,68.768166 
M285.963715,57.286388 
	C284.975433,57.201820 283.820251,56.758064 283.039703,57.120667 
	C281.987579,57.609421 281.223846,58.719109 280.809387,59.112881 
	C278.881744,57.876213 277.231781,56.817711 275.581848,55.759212 
	C275.051788,56.048347 274.521729,56.337482 273.991669,56.626614 
	C279.998535,60.894489 279.669952,65.198235 273.958435,69.532448 
	C274.534973,69.810028 275.111481,70.087608 275.687988,70.365189 
	C277.391357,69.120949 279.094696,67.876709 280.432159,66.899742 
	C282.033875,68.018257 283.683746,69.170425 285.333649,70.322594 
	C285.808014,70.040298 286.282349,69.758003 286.756714,69.475708 
	C283.028381,65.745575 280.391113,61.980965 285.963715,57.286388 
M190.779251,56.042988 
	C190.186615,59.306858 189.240067,62.563198 189.170425,65.838188 
	C189.141388,67.204292 190.869583,69.639145 191.992249,69.757828 
	C193.697876,69.938148 195.572113,68.523804 197.374725,67.786812 
	C197.059769,67.117447 196.744797,66.448090 196.429825,65.778725 
	C195.154175,66.474632 193.878525,67.170540 192.311249,68.025536 
	C192.311249,66.022896 192.311249,64.179352 192.311249,62.283482 
	C193.927887,62.050064 195.463470,61.828350 196.916779,61.618515 
	C197.294617,57.404629 195.822052,55.356804 190.779251,56.042988 
M251.408203,56.000187 
	C248.447571,55.473118 247.220886,57.108913 247.035660,59.722397 
	C246.883423,61.870415 246.844452,64.052780 247.047211,66.192261 
	C247.251923,68.352531 247.905396,70.639305 250.807983,69.919693 
	C252.388947,69.527740 253.767563,68.319580 255.237442,67.479538 
	C254.888779,66.895668 254.540115,66.311798 254.191452,65.727928 
	C252.949799,66.483780 251.708160,67.239624 250.155762,68.184631 
	C250.155762,65.967468 250.155762,64.193878 250.155762,62.255901 
	C251.835190,62.049133 253.404053,61.855976 256.234650,61.507477 
	C254.589676,59.217896 253.434570,57.610142 251.408203,56.000187 
z"/>
<path fill="#080404" opacity="1.000000" stroke="none" 
	d="
M67.132965,32.603542 
	C82.351524,40.892410 85.619133,57.489933 79.390320,70.949753 
	C71.964363,86.996475 50.798443,90.439117 37.470280,81.102203 
	C24.829428,72.246765 23.189032,56.573242 28.548752,45.172142 
	C32.814770,36.097542 40.586796,30.298510 51.066216,30.138607 
	C56.318829,30.058462 61.595291,31.541346 67.132965,32.603542 
M38.170895,39.054665 
	C37.078217,40.659431 35.985535,42.264194 34.322708,44.139343 
	C34.156464,44.746056 33.990219,45.352764 33.272957,46.434494 
	C32.780777,48.010044 31.947910,49.570660 31.878046,51.164719 
	C31.778795,53.429279 31.431299,56.917732 32.640591,57.733978 
	C34.800003,59.191551 38.049942,59.450596 40.831566,59.407764 
	C42.418835,59.383324 44.278458,58.063377 45.500259,56.820366 
	C49.273521,52.981609 53.729992,52.207546 59.231560,53.700397 
	C64.691681,56.360535 70.062782,59.435505 76.976006,57.398338 
	C76.875938,51.469070 75.202080,46.065033 71.738914,41.318375 
	C69.066605,37.655670 65.849625,34.564899 59.850933,34.957344 
	C57.209156,34.994999 54.567383,35.032650 51.074638,34.935043 
	C48.375458,35.276577 45.676281,35.618111 42.343987,36.027473 
	C41.507748,36.625908 40.671509,37.224342 39.340851,37.963768 
	C39.152443,38.238853 38.964035,38.513935 38.170895,39.054665 
M54.950344,70.573311 
	C50.803482,70.293663 46.431808,70.391335 45.680279,65.430489 
	C40.619480,65.430489 35.847511,65.430489 31.094225,65.430489 
	C34.136879,76.419136 44.191345,83.704323 55.621330,82.904655 
	C67.577240,80.590012 75.270317,74.023781 76.370766,65.298035 
	C72.186356,65.298035 67.978844,65.298035 65.414352,65.298035 
	C61.441452,67.472870 58.616077,69.019531 54.950344,70.573311 
M52.020645,55.180931 
	C48.937263,56.602909 47.021942,59.057430 48.152145,62.316376 
	C48.800201,64.185059 50.796432,66.195518 52.656624,66.901657 
	C56.035927,68.184448 59.451878,65.662720 60.040760,62.193531 
	C60.754387,57.989452 58.092022,55.358185 52.020645,55.180931 
z"/>
<path fill="#000000" opacity="1.000000" stroke="none" 
	d="
M226.000000,63.906296 
	C226.000000,66.174057 226.000000,67.957375 226.000000,70.022797 
	C222.457306,69.651955 218.475800,71.684402 217.964157,66.019470 
	C217.290405,58.559448 218.091965,56.505268 222.429611,55.824154 
	C222.981308,53.754322 223.521713,51.726849 224.062119,49.699375 
	C224.708084,49.825378 225.354034,49.951385 226.000000,50.077393 
	C226.000000,54.525543 226.000000,58.973694 226.000000,63.906296 
z"/>
<path fill="#000000" opacity="1.000000" stroke="none" 
	d="
M101.001373,67.705185 
	C101.000168,61.609280 101.000168,55.988041 101.000168,50.418312 
	C110.213356,49.441162 111.648865,50.010429 111.999359,54.580185 
	C112.464355,60.642689 111.226807,61.896755 103.991325,62.098518 
	C103.991325,64.176430 104.084785,66.287201 103.929260,68.379456 
	C103.887482,68.941521 103.087837,69.447235 102.636093,69.978821 
	C102.091591,69.379158 101.547089,68.779503 101.001373,67.705185 
M104.000015,55.549782 
	C104.069061,56.976185 104.138107,58.402588 104.203987,59.763702 
	C105.583633,59.763702 106.648521,59.763702 107.809082,59.763702 
	C107.809082,57.139603 107.809082,54.748207 107.809082,52.356812 
	C107.444077,52.056530 107.079063,51.756248 106.714058,51.455971 
	C105.809448,52.510750 104.904846,53.565529 104.000015,55.549782 
z"/>
<path fill="#000000" opacity="1.000000" stroke="none" 
	d="
M140.994812,69.009583 
	C138.461090,70.137146 135.136139,71.324715 134.569031,67.849159 
	C133.967361,64.161629 134.504608,60.073383 135.519287,56.431755 
	C135.994568,54.725948 141.508224,56.237690 141.637573,58.407856 
	C141.837997,61.770485 141.282379,65.178169 140.994812,69.009583 
z"/>
<path fill="#000000" opacity="1.000000" stroke="none" 
	d="
M165.929886,69.184509 
	C164.913620,69.073174 163.145233,68.573013 163.126282,68.013596 
	C162.924896,62.068428 163.001312,56.113850 163.001312,49.179272 
	C168.082855,52.174641 164.716263,56.443375 166.276291,59.318409 
	C167.399551,58.168617 168.660889,56.877495 169.922226,55.586372 
	C170.361710,55.928913 170.801193,56.271454 171.240677,56.613995 
	C169.987381,58.763340 168.734100,60.912689 167.454849,63.106567 
	C168.583694,64.911308 169.950134,67.095879 171.316574,69.280449 
	C170.881516,69.668655 170.446472,70.056870 170.011429,70.445076 
	C168.713608,69.148262 167.415787,67.851448 166.121399,66.558052 
	C166.084564,67.177689 166.037277,67.972931 165.929886,69.184509 
z"/>
<path fill="#000000" opacity="1.000000" stroke="none" 
	d="
M285.752747,57.628304 
	C280.391113,61.980965 283.028381,65.745575 286.756714,69.475708 
	C286.282349,69.758003 285.808014,70.040298 285.333649,70.322594 
	C283.683746,69.170425 282.033875,68.018257 280.432159,66.899742 
	C279.094696,67.876709 277.391357,69.120949 275.687988,70.365189 
	C275.111481,70.087608 274.534973,69.810028 273.958435,69.532448 
	C279.669952,65.198235 279.998535,60.894489 273.991669,56.626614 
	C274.521729,56.337482 275.051788,56.048347 275.581848,55.759212 
	C277.231781,56.817711 278.881744,57.876213 280.809387,59.112881 
	C281.223846,58.719109 281.987579,57.609421 283.039703,57.120667 
	C283.820251,56.758064 284.975433,57.201820 285.752747,57.628304 
z"/>
<path fill="#000000" opacity="1.000000" stroke="none" 
	d="
M191.220673,56.023033 
	C195.822052,55.356804 197.294617,57.404629 196.916779,61.618515 
	C195.463470,61.828350 193.927887,62.050064 192.311249,62.283482 
	C192.311249,64.179352 192.311249,66.022896 192.311249,68.025536 
	C193.878525,67.170540 195.154175,66.474632 196.429825,65.778725 
	C196.744797,66.448090 197.059769,67.117447 197.374725,67.786812 
	C195.572113,68.523804 193.697876,69.938148 191.992249,69.757828 
	C190.869583,69.639145 189.141388,67.204292 189.170425,65.838188 
	C189.240067,62.563198 190.186615,59.306858 191.220673,56.023033 
z"/>
<path fill="#000000" opacity="1.000000" stroke="none" 
	d="
M251.843842,56.001289 
	C253.434570,57.610142 254.589676,59.217896 256.234650,61.507477 
	C253.404053,61.855976 251.835190,62.049133 250.155762,62.255901 
	C250.155762,64.193878 250.155762,65.967468 250.155762,68.184631 
	C251.708160,67.239624 252.949799,66.483780 254.191452,65.727928 
	C254.540115,66.311798 254.888779,66.895668 255.237442,67.479538 
	C253.767563,68.319580 252.388947,69.527740 250.807983,69.919693 
	C247.905396,70.639305 247.251923,68.352531 247.047211,66.192261 
	C246.844452,64.052780 246.883423,61.870415 247.035660,59.722397 
	C247.220886,57.108913 248.447571,55.473118 251.843842,56.001289 
z"/>
<path fill="#F6F6F6" opacity="1.000000" stroke="none" 
	d="
M54.856873,82.652527 
	C44.191345,83.704323 34.136879,76.419136 31.094225,65.430489 
	C35.847511,65.430489 40.619480,65.430489 45.680279,65.430489 
	C46.431808,70.391335 50.803482,70.293663 55.391891,70.947449 
	C55.507919,75.098572 55.182400,78.875549 54.856873,82.652527 
z"/>
<path fill="#FC3939" opacity="1.000000" stroke="none" 
	d="
M51.925606,35.070305 
	C54.567383,35.032650 57.209156,34.994999 60.359997,35.415260 
	C62.257084,41.894733 62.335144,47.755222 58.742985,53.164436 
	C53.729992,52.207546 49.273521,52.981609 45.500259,56.820366 
	C44.278458,58.063377 42.418835,59.383324 40.831566,59.407764 
	C38.049942,59.450596 34.800003,59.191551 32.640591,57.733978 
	C31.431299,56.917732 31.778795,53.429279 31.878046,51.164719 
	C31.947910,49.570660 32.780777,48.010044 33.628048,46.543251 
	C38.374641,55.865639 48.368187,55.055943 52.942436,47.332733 
	C55.520447,42.979992 53.108921,39.086632 51.925606,35.070305 
z"/>
<path fill="#AF0101" opacity="1.000000" stroke="none" 
	d="
M58.987274,53.432419 
	C62.335144,47.755222 62.257084,41.894733 60.794235,35.451088 
	C65.849625,34.564899 69.066605,37.655670 71.738914,41.318375 
	C75.202080,46.065033 76.875938,51.469070 76.976006,57.398338 
	C70.062782,59.435505 64.691681,56.360535 58.987274,53.432419 
z"/>
<path fill="#A5A5A5" opacity="1.000000" stroke="none" 
	d="
M55.239105,82.778595 
	C55.182400,78.875549 55.507919,75.098572 55.812073,70.943893 
	C58.616077,69.019531 61.441452,67.472870 65.414352,65.298035 
	C67.978844,65.298035 72.186356,65.298035 76.370766,65.298035 
	C75.270317,74.023781 67.577240,80.590012 55.239105,82.778595 
z"/>
<path fill="#F8F8F8" opacity="1.000000" stroke="none" 
	d="
M52.417427,55.116158 
	C58.092022,55.358185 60.754387,57.989452 60.040760,62.193531 
	C59.451878,65.662720 56.035927,68.184448 52.656624,66.901657 
	C50.796432,66.195518 48.800201,64.185059 48.152145,62.316376 
	C47.021942,59.057430 48.937263,56.602909 52.417427,55.116158 
z"/>
<path fill="#FD8181" opacity="1.000000" stroke="none" 
	d="
M51.500122,35.002674 
	C53.108921,39.086632 55.520447,42.979992 52.942436,47.332733 
	C48.368187,55.055943 38.374641,55.865639 33.903557,46.305744 
	C33.990219,45.352764 34.156464,44.746056 34.958874,44.084572 
	C36.032139,44.478527 36.670708,44.850800 36.874569,45.388031 
	C38.557262,49.822441 42.331512,51.364189 45.955624,49.530968 
	C48.317116,48.336430 50.690590,44.472755 50.643082,41.848522 
	C50.574184,38.043312 47.269882,35.707081 42.977100,35.959648 
	C45.676281,35.618111 48.375458,35.276577 51.500122,35.002674 
z"/>
<path fill="#FEA6A6" opacity="1.000000" stroke="none" 
	d="
M42.660545,35.993561 
	C47.269882,35.707081 50.574184,38.043312 50.643082,41.848522 
	C50.690590,44.472755 48.317116,48.336430 45.955624,49.530968 
	C42.331512,51.364189 38.557262,49.822441 36.874569,45.388031 
	C36.670708,44.850800 36.032139,44.478527 35.243950,43.949379 
	C35.985535,42.264194 37.078217,40.659431 38.575264,39.013252 
	C38.979633,38.971844 39.190941,39.146183 39.127396,39.560452 
	C39.084694,41.603153 38.498325,43.664738 39.275227,44.753845 
	C40.320831,46.219624 42.345478,47.504097 44.094601,47.726025 
	C44.930267,47.832047 46.099281,45.310738 47.094627,43.653374 
	C47.088131,42.892151 47.104321,42.456989 47.358124,41.794685 
	C46.765457,36.793858 43.170006,38.150719 40.079803,38.113667 
	C40.001125,38.014359 39.835270,37.822777 39.835270,37.822777 
	C40.671509,37.224342 41.507748,36.625908 42.660545,35.993561 
z"/>
<path fill="#FEA6A6" opacity="1.000000" stroke="none" 
	d="
M38.877632,38.880432 
	C38.964035,38.513935 39.152443,38.238853 39.588058,37.893272 
	C39.835270,37.822777 40.001125,38.014359 39.930614,38.281048 
	C39.654263,38.766468 39.431210,38.965950 39.190941,39.146183 
	C39.190941,39.146183 38.979633,38.971844 38.877632,38.880432 
z"/>
<path fill="#FFFFFF" opacity="1.000000" stroke="none" 
	d="
M104.000130,55.085045 
	C104.904846,53.565529 105.809448,52.510750 106.714058,51.455971 
	C107.079063,51.756248 107.444077,52.056530 107.809082,52.356812 
	C107.809082,54.748207 107.809082,57.139603 107.809082,59.763702 
	C106.648521,59.763702 105.583633,59.763702 104.203987,59.763702 
	C104.138107,58.402588 104.069061,56.976185 104.000130,55.085045 
z"/>
<path fill="#FFC4C4" opacity="1.000000" stroke="none" 
	d="
M39.127396,39.560452 
	C39.431210,38.965950 39.654263,38.766468 40.009293,38.380356 
	C43.170006,38.150719 46.765457,36.793858 47.023922,41.644863 
	C44.797920,41.565674 43.143738,41.409153 41.489555,41.252632 
	C41.649162,42.597515 41.808769,43.942398 41.968369,45.287281 
	C43.684681,44.851337 45.400997,44.415390 47.117310,43.979443 
	C46.099281,45.310738 44.930267,47.832047 44.094601,47.726025 
	C42.345478,47.504097 40.320831,46.219624 39.275227,44.753845 
	C38.498325,43.664738 39.084694,41.603153 39.127396,39.560452 
z"/>
<path fill="#FFE2E2" opacity="1.000000" stroke="none" 
	d="
M47.094627,43.653374 
	C45.400997,44.415390 43.684681,44.851337 41.968369,45.287281 
	C41.808769,43.942398 41.649162,42.597515 41.489555,41.252632 
	C43.143738,41.409153 44.797920,41.565674 46.786304,41.872009 
	C47.104321,42.456989 47.088131,42.892151 47.094627,43.653374 
z"/>
</svg>